<svg width="21" height="20" viewBox="0 0 21 20" fill="none" xmlns="http://www.w3.org/2000/svg">
<mask id="mask0_1218_195" style="mask-type:luminance" maskUnits="userSpaceOnUse" x="3" y="3" width="16" height="15">
<path fill-rule="evenodd" clip-rule="evenodd" d="M3.5 3.7674H17.8964V17.4806H3.5V3.7674Z" fill="white" stroke="white"/>
</mask>
<g mask="url(#mask0_1218_195)">
<path fill-rule="evenodd" clip-rule="evenodd" d="M4.7839 10.1814C5.76979 13.2488 9.66484 15.729 10.7 16.3429C11.7386 15.7227 15.6618 13.2151 16.616 10.1842C17.2426 8.22512 16.661 5.74351 14.3503 4.99881C13.2308 4.63948 11.9249 4.85817 11.0234 5.55575C10.835 5.70061 10.5734 5.70343 10.3835 5.55997C9.42857 4.842 8.18108 4.63174 7.044 4.99881C4.73679 5.7428 4.15734 8.22441 4.7839 10.1814ZM10.6994 17.4799C10.6122 17.4799 10.5257 17.4588 10.4469 17.4159C10.2268 17.2957 5.0421 14.4379 3.77844 10.5041C3.77774 10.5041 3.77774 10.5034 3.77774 10.5034C2.98452 8.02676 3.86775 4.91438 6.71924 3.99529C8.05814 3.56211 9.51729 3.75268 10.6973 4.49738C11.8407 3.77448 13.3596 3.57477 14.6718 3.99529C17.5261 4.91578 18.4121 8.02746 17.6196 10.5034C16.3967 14.3922 11.174 17.2929 10.9525 17.4145C10.8738 17.4581 10.7866 17.4799 10.6994 17.4799Z" fill="#B8B8B8"/>
<path d="M10.7 16.3429L10.4449 16.773L10.7008 16.9248L10.9563 16.7722L10.7 16.3429ZM16.616 10.1842L16.1398 10.0319L16.1391 10.0341L16.616 10.1842ZM14.3503 4.99881L14.5037 4.52292L14.5031 4.52274L14.3503 4.99881ZM11.0234 5.55575L11.3281 5.95218L11.3294 5.95119L11.0234 5.55575ZM10.3835 5.55997L10.6849 5.16104L10.684 5.16033L10.3835 5.55997ZM7.044 4.99881L7.19745 5.47469L7.1976 5.47464L7.044 4.99881ZM10.4469 17.4159L10.2072 17.8547L10.2078 17.855L10.4469 17.4159ZM3.77844 10.5041L4.25448 10.3512L4.14299 10.0041H3.77844V10.5041ZM3.77774 10.5034L4.27774 10.5034L4.27773 10.4253L4.25391 10.3509L3.77774 10.5034ZM6.71924 3.99529L6.87263 4.47118L6.87315 4.47101L6.71924 3.99529ZM10.6973 4.49738L10.4304 4.92021L10.6975 5.08877L10.9645 4.92L10.6973 4.49738ZM14.6718 3.99529L14.8252 3.51942L14.8244 3.51914L14.6718 3.99529ZM17.6196 10.5034L17.1434 10.351L17.1426 10.3535L17.6196 10.5034ZM10.9525 17.4145L10.7118 16.9763L10.7104 16.9771L10.9525 17.4145ZM4.7839 10.1814L4.30788 10.3344C4.84252 11.9978 6.14487 13.4581 7.39299 14.5574C8.6517 15.6661 9.91324 16.4577 10.4449 16.773L10.7 16.3429L10.955 15.9129C10.4516 15.6143 9.24802 14.8588 8.05396 13.807C6.84929 12.7459 5.71117 11.4324 5.25992 10.0284L4.7839 10.1814ZM10.7 16.3429L10.9563 16.7722C11.4891 16.454 12.7582 15.6542 14.0201 14.5428C15.2705 13.4415 16.5741 11.9823 17.0929 10.3344L16.616 10.1842L16.1391 10.0341C15.7037 11.417 14.5686 12.7271 13.3592 13.7923C12.1612 14.8474 10.9494 15.6116 10.4436 15.9136L10.7 16.3429ZM16.616 10.1842L17.0923 10.3366C17.4356 9.26296 17.4526 8.03702 17.0534 6.96205C16.6493 5.87396 15.8184 4.94662 14.5037 4.52292L14.3503 4.99881L14.1969 5.47471C15.1929 5.7957 15.8082 6.48151 16.1159 7.31018C16.4285 8.15197 16.423 9.14641 16.1398 10.0319L16.616 10.1842ZM14.3503 4.99881L14.5031 4.52274C13.2326 4.11492 11.754 4.3582 10.7174 5.16031L11.0234 5.55575L11.3294 5.95119C12.0958 5.35815 13.229 5.16403 14.1975 5.47489L14.3503 4.99881ZM11.0234 5.55575L10.7187 5.15933C10.7063 5.1689 10.6928 5.16697 10.6849 5.16104L10.3835 5.55997L10.0821 5.95891C10.454 6.23988 10.9637 6.23233 11.3281 5.95217L11.0234 5.55575ZM10.3835 5.55997L10.684 5.16033C9.59931 4.34482 8.18251 4.10587 6.89039 4.52299L7.044 4.99881L7.1976 5.47464C8.17966 5.15761 9.25782 5.33918 10.083 5.95962L10.3835 5.55997ZM7.044 4.99881L6.89055 4.52294C5.5773 4.94642 4.7479 5.87387 4.34493 6.96153C3.94682 8.03607 3.96434 9.26139 4.30771 10.3339L4.7839 10.1814L5.26009 10.029C4.9769 9.14446 4.97087 8.15046 5.28264 7.30895C5.58956 6.48055 6.20349 5.7952 7.19745 5.47469L7.044 4.99881ZM10.6994 17.4799V16.9799C10.6934 16.9799 10.6894 16.9787 10.6861 16.9768L10.4469 17.4159L10.2078 17.855C10.362 17.939 10.531 17.9799 10.6994 17.9799V17.4799ZM10.4469 17.4159L10.6866 16.9772C10.5901 16.9244 9.26938 16.1972 7.82203 15.0043C6.36208 13.801 4.84158 12.1789 4.25448 10.3512L3.77844 10.5041L3.3024 10.6571C3.97895 12.7632 5.68264 14.5368 7.18601 15.7759C8.70196 17.0254 10.0837 17.7872 10.2072 17.8547L10.4469 17.4159ZM3.77844 10.5041V10.0041C3.8657 10.0041 3.96439 10.0274 4.05527 10.0879C4.14304 10.1464 4.19534 10.2208 4.22498 10.2801C4.25364 10.3374 4.26548 10.3886 4.27093 10.4213C4.27386 10.4388 4.27551 10.4545 4.27646 10.4678C4.27694 10.4746 4.27726 10.4809 4.27746 10.4868C4.27756 10.4897 4.27763 10.4926 4.27767 10.4954C4.27769 10.4968 4.27771 10.4981 4.27772 10.4995C4.27772 10.5001 4.27773 10.5008 4.27773 10.5015C4.27773 10.5018 4.27773 10.5021 4.27773 10.5025C4.27773 10.5026 4.27773 10.5029 4.27774 10.5029C4.27774 10.5032 4.27774 10.5034 3.77774 10.5034C3.27774 10.5035 3.27774 10.5037 3.27774 10.5039C3.27774 10.504 3.27774 10.5043 3.27774 10.5044C3.27774 10.5048 3.27774 10.5051 3.27774 10.5054C3.27774 10.5061 3.27775 10.5068 3.27775 10.5074C3.27776 10.5088 3.27778 10.5101 3.2778 10.5115C3.27785 10.5143 3.27791 10.5172 3.27801 10.5201C3.27821 10.526 3.27853 10.5324 3.27901 10.5391C3.27996 10.5524 3.28162 10.5682 3.28456 10.5858C3.29003 10.6186 3.30192 10.67 3.33066 10.7275C3.36039 10.7869 3.41282 10.8615 3.50079 10.9201C3.59187 10.9808 3.69083 11.0041 3.77844 11.0041V10.5041ZM3.77774 10.5034L4.25391 10.3509C3.51591 8.04665 4.36551 5.27927 6.87263 4.47118L6.71924 3.99529L6.56585 3.5194C3.36998 4.54948 2.45313 8.00687 3.30156 10.656L3.77774 10.5034ZM6.71924 3.99529L6.87315 4.47101C8.06973 4.08388 9.37486 4.25404 10.4304 4.92021L10.6973 4.49738L10.9641 4.07454C9.65973 3.25132 8.04656 3.04035 6.56533 3.51956L6.71924 3.99529ZM10.6973 4.49738L10.9645 4.92C11.9829 4.2761 13.3481 4.09614 14.5192 4.47143L14.6718 3.99529L14.8244 3.51914C13.3711 3.0534 11.6984 3.27286 10.4301 4.07475L10.6973 4.49738ZM14.6718 3.99529L14.5183 4.47115C17.029 5.28084 17.8805 8.04822 17.1434 10.351L17.6196 10.5034L18.0958 10.6559C18.9438 8.00671 18.0232 4.55073 14.8252 3.51942L14.6718 3.99529ZM17.6196 10.5034L17.1426 10.3535C16.5759 12.1558 15.0583 13.7763 13.5923 14.986C12.1399 16.1845 10.809 16.9229 10.7118 16.9763L10.9525 17.4145L11.1932 17.8528C11.3176 17.7845 12.7087 17.0117 14.2288 15.7573C15.7353 14.5141 17.4405 12.7398 18.0966 10.6534L17.6196 10.5034ZM10.9525 17.4145L10.7104 16.9771C10.7069 16.979 10.7032 16.9799 10.6994 16.9799V17.4799V17.9799C10.8699 17.9799 11.0406 17.9373 11.1947 17.852L10.9525 17.4145Z" fill="#B8B8B8"/>
</g>
</svg>
