<svg width="21" height="20" viewBox="0 0 21 20" fill="none" xmlns="http://www.w3.org/2000/svg">
<mask id="mask0_1218_179" style="mask-type:luminance" maskUnits="userSpaceOnUse" x="3" y="3" width="16" height="15">
<path fill-rule="evenodd" clip-rule="evenodd" d="M3.5 3.76746H17.8964V17.4806H3.5V3.76746Z" fill="white" stroke="white"/>
</mask>
<g mask="url(#mask0_1218_179)">
<path fill-rule="evenodd" clip-rule="evenodd" d="M4.7839 10.1815C5.76979 13.2489 9.66484 15.7291 10.7 16.343C11.7386 15.7227 15.6618 13.2151 16.616 10.1843C17.2426 8.22518 16.661 5.74357 14.3503 4.99888C13.2308 4.63954 11.9249 4.85823 11.0234 5.55581C10.835 5.70067 10.5734 5.70349 10.3835 5.56003C9.42857 4.84206 8.18108 4.6318 7.044 4.99888C4.73679 5.74287 4.15734 8.22447 4.7839 10.1815ZM10.6994 17.48C10.6122 17.48 10.5257 17.4589 10.4469 17.416C10.2268 17.2958 5.0421 14.4379 3.77844 10.5042C3.77774 10.5042 3.77774 10.5035 3.77774 10.5035C2.98452 8.02682 3.86775 4.91444 6.71924 3.99535C8.05814 3.56217 9.51729 3.75274 10.6973 4.49744C11.8407 3.77454 13.3596 3.57483 14.6718 3.99535C17.5261 4.91584 18.4121 8.02752 17.6196 10.5035C16.3967 14.3922 11.174 17.2929 10.9525 17.4146C10.8738 17.4582 10.7866 17.48 10.6994 17.48Z" fill="#186FF0"/>
<path d="M10.7 16.343L10.4449 16.773L10.7008 16.9248L10.9563 16.7723L10.7 16.343ZM16.616 10.1843L16.1398 10.032L16.1391 10.0341L16.616 10.1843ZM14.3503 4.99888L14.5037 4.52298L14.5031 4.5228L14.3503 4.99888ZM11.0234 5.55581L11.3281 5.95224L11.3294 5.95125L11.0234 5.55581ZM10.3835 5.56003L10.6849 5.1611L10.684 5.16039L10.3835 5.56003ZM7.044 4.99888L7.19745 5.47475L7.1976 5.4747L7.044 4.99888ZM10.4469 17.416L10.2072 17.8548L10.2078 17.8551L10.4469 17.416ZM3.77844 10.5042L4.25448 10.3513L4.14299 10.0042H3.77844V10.5042ZM3.77774 10.5035L4.27774 10.5035L4.27773 10.4254L4.25391 10.351L3.77774 10.5035ZM6.71924 3.99535L6.87263 4.47124L6.87315 4.47107L6.71924 3.99535ZM10.6973 4.49744L10.4304 4.92027L10.6975 5.08883L10.9645 4.92006L10.6973 4.49744ZM14.6718 3.99535L14.8252 3.51948L14.8244 3.5192L14.6718 3.99535ZM17.6196 10.5035L17.1434 10.3511L17.1426 10.3535L17.6196 10.5035ZM10.9525 17.4146L10.7118 16.9763L10.7104 16.9772L10.9525 17.4146ZM4.7839 10.1815L4.30788 10.3345C4.84252 11.9979 6.14487 13.4581 7.39299 14.5575C8.6517 15.6662 9.91324 16.4577 10.4449 16.773L10.7 16.343L10.955 15.9129C10.4516 15.6143 9.24802 14.8588 8.05396 13.8071C6.84929 12.746 5.71117 11.4325 5.25992 10.0285L4.7839 10.1815ZM10.7 16.343L10.9563 16.7723C11.4891 16.4541 12.7582 15.6543 14.0201 14.5428C15.2705 13.4415 16.5741 11.9824 17.0929 10.3345L16.616 10.1843L16.1391 10.0341C15.7037 11.417 14.5686 12.7271 13.3592 13.7924C12.1612 14.8475 10.9494 15.6116 10.4436 15.9137L10.7 16.343ZM16.616 10.1843L17.0923 10.3366C17.4356 9.26302 17.4526 8.03708 17.0534 6.96211C16.6493 5.87402 15.8184 4.94668 14.5037 4.52298L14.3503 4.99888L14.1969 5.47477C15.1929 5.79576 15.8082 6.48157 16.1159 7.31025C16.4285 8.15203 16.423 9.14647 16.1398 10.032L16.616 10.1843ZM14.3503 4.99888L14.5031 4.5228C13.2326 4.11498 11.754 4.35826 10.7174 5.16037L11.0234 5.55581L11.3294 5.95125C12.0958 5.35821 13.229 5.16409 14.1975 5.47495L14.3503 4.99888ZM11.0234 5.55581L10.7187 5.15939C10.7063 5.16896 10.6928 5.16703 10.6849 5.1611L10.3835 5.56003L10.0821 5.95897C10.454 6.23995 10.9637 6.23239 11.3281 5.95224L11.0234 5.55581ZM10.3835 5.56003L10.684 5.16039C9.59931 4.34488 8.18251 4.10593 6.89039 4.52305L7.044 4.99888L7.1976 5.4747C8.17966 5.15767 9.25782 5.33924 10.083 5.95968L10.3835 5.56003ZM7.044 4.99888L6.89055 4.523C5.5773 4.94648 4.7479 5.87393 4.34493 6.96159C3.94682 8.03613 3.96434 9.26145 4.30771 10.3339L4.7839 10.1815L5.26009 10.029C4.9769 9.14452 4.97087 8.15052 5.28264 7.30901C5.58956 6.48061 6.20349 5.79526 7.19745 5.47475L7.044 4.99888ZM10.6994 17.48V16.98C10.6934 16.98 10.6894 16.9787 10.6861 16.9769L10.4469 17.416L10.2078 17.8551C10.362 17.9391 10.531 17.98 10.6994 17.98V17.48ZM10.4469 17.416L10.6866 16.9772C10.5901 16.9245 9.26938 16.1973 7.82203 15.0043C6.36208 13.801 4.84158 12.1789 4.25448 10.3513L3.77844 10.5042L3.3024 10.6571C3.97895 12.7632 5.68264 14.5369 7.18601 15.776C8.70196 17.0255 10.0837 17.7873 10.2072 17.8548L10.4469 17.416ZM3.77844 10.5042V10.0042C3.8657 10.0042 3.96439 10.0274 4.05527 10.088C4.14304 10.1465 4.19534 10.2209 4.22498 10.2801C4.25364 10.3374 4.26548 10.3887 4.27093 10.4214C4.27386 10.4389 4.27551 10.4546 4.27646 10.4679C4.27694 10.4746 4.27726 10.4809 4.27746 10.4868C4.27756 10.4898 4.27763 10.4927 4.27767 10.4954C4.27769 10.4968 4.27771 10.4982 4.27772 10.4995C4.27772 10.5002 4.27773 10.5009 4.27773 10.5015C4.27773 10.5019 4.27773 10.5022 4.27773 10.5025C4.27773 10.5027 4.27773 10.5029 4.27774 10.503C4.27774 10.5033 4.27774 10.5035 3.77774 10.5035C3.27774 10.5035 3.27774 10.5038 3.27774 10.504C3.27774 10.5041 3.27774 10.5043 3.27774 10.5045C3.27774 10.5048 3.27774 10.5052 3.27774 10.5055C3.27774 10.5061 3.27775 10.5068 3.27775 10.5075C3.27776 10.5088 3.27778 10.5102 3.2778 10.5116C3.27785 10.5144 3.27791 10.5172 3.27801 10.5202C3.27821 10.5261 3.27853 10.5324 3.27901 10.5392C3.27996 10.5525 3.28162 10.5683 3.28456 10.5859C3.29003 10.6187 3.30192 10.6701 3.33066 10.7276C3.36039 10.787 3.41282 10.8616 3.50079 10.9202C3.59187 10.9809 3.69083 11.0042 3.77844 11.0042V10.5042ZM3.77774 10.5035L4.25391 10.351C3.51591 8.04671 4.36551 5.27933 6.87263 4.47124L6.71924 3.99535L6.56585 3.51946C3.36998 4.54955 2.45313 8.00693 3.30156 10.656L3.77774 10.5035ZM6.71924 3.99535L6.87315 4.47107C8.06973 4.08394 9.37486 4.2541 10.4304 4.92027L10.6973 4.49744L10.9641 4.0746C9.65973 3.25139 8.04656 3.04041 6.56533 3.51963L6.71924 3.99535ZM10.6973 4.49744L10.9645 4.92006C11.9829 4.27616 13.3481 4.0962 14.5192 4.4715L14.6718 3.99535L14.8244 3.5192C13.3711 3.05346 11.6984 3.27292 10.4301 4.07482L10.6973 4.49744ZM14.6718 3.99535L14.5183 4.47121C17.029 5.2809 17.8805 8.04828 17.1434 10.3511L17.6196 10.5035L18.0958 10.6559C18.9438 8.00677 18.0232 4.55079 14.8252 3.51948L14.6718 3.99535ZM17.6196 10.5035L17.1426 10.3535C16.5759 12.1559 15.0583 13.7763 13.5923 14.9861C12.1399 16.1846 10.809 16.923 10.7118 16.9763L10.9525 17.4146L11.1932 17.8529C11.3176 17.7845 12.7087 17.0118 14.2288 15.7573C15.7353 14.5141 17.4405 12.7399 18.0966 10.6535L17.6196 10.5035ZM10.9525 17.4146L10.7104 16.9772C10.7069 16.9791 10.7032 16.98 10.6994 16.98V17.48V17.98C10.8699 17.98 11.0406 17.9373 11.1947 17.852L10.9525 17.4146Z" fill="#186FF0"/>
<path d="M7.5 5L10.5 5.5H14L15.5 6L16.5 9L14.5 13.5L10.5 16L9 15.5L5.61459 11.631L5.5 11.5L5 10V7L7.5 5Z" fill="#186FF0"/>
<path d="M10.5 5.5L7.5 5L5 7M10.5 5.5H14L15.5 6L16.5 9L14.5 13.5L10.5 16M10.5 5.5V16M5 7V10L5.5 11.5L5.61459 11.631M5 7L5.61459 11.631M10.5 16L9 15.5L5.61459 11.631" stroke="#186FF0"/>
</g>
</svg>
