<svg width="21" height="20" viewBox="0 0 21 20" fill="none" xmlns="http://www.w3.org/2000/svg">
<path opacity="0.15" fill-rule="evenodd" clip-rule="evenodd" d="M10.5 17.5C14.366 15.8333 17.5 12.8486 17.5 9.16667C17.5 5.48477 14.366 2.5 10.5 2.5C6.63401 2.5 3.5 5.48477 3.5 9.16667C3.5 12.8486 6.63401 15.8333 10.5 17.5ZM10.5 11.6667C11.9497 11.6667 13.125 10.5474 13.125 9.16667C13.125 7.78595 11.9497 6.66667 10.5 6.66667C9.05025 6.66667 7.875 7.78595 7.875 9.16667C7.875 10.5474 9.05025 11.6667 10.5 11.6667Z" fill="url(#paint0_linear_1224_360)"/>
<path d="M17.5 9.16667C17.5 12.8486 14.366 15.8333 10.5 17.5C6.63401 15.8333 3.5 12.8486 3.5 9.16667C3.5 5.48477 6.63401 2.5 10.5 2.5C14.366 2.5 17.5 5.48477 17.5 9.16667Z" fill="url(#paint1_linear_1224_360)"/>
<path d="M13.125 9.16667C13.125 10.5474 11.9497 11.6667 10.5 11.6667C9.05025 11.6667 7.875 10.5474 7.875 9.16667C7.875 7.78595 9.05025 6.66667 10.5 6.66667C11.9497 6.66667 13.125 7.78595 13.125 9.16667Z" fill="url(#paint2_linear_1224_360)"/>
<ellipse cx="10.5" cy="10" rx="2.625" ry="2.5" fill="white"/>
<defs>
<linearGradient id="paint0_linear_1224_360" x1="17.3199" y1="13.3173" x2="2.98213" y2="13.137" gradientUnits="userSpaceOnUse">
<stop stop-color="#176FF2"/>
<stop offset="1" stop-color="#196EEE"/>
</linearGradient>
<linearGradient id="paint1_linear_1224_360" x1="17.3199" y1="13.3173" x2="2.98213" y2="13.137" gradientUnits="userSpaceOnUse">
<stop stop-color="#176FF2"/>
<stop offset="1" stop-color="#196EEE"/>
</linearGradient>
<linearGradient id="paint2_linear_1224_360" x1="17.3199" y1="13.3173" x2="2.98213" y2="13.137" gradientUnits="userSpaceOnUse">
<stop stop-color="#176FF2"/>
<stop offset="1" stop-color="#196EEE"/>
</linearGradient>
</defs>
</svg>
